<svg width="15" height="15" viewBox="0 0 15 15" fill="none" xmlns="http://www.w3.org/2000/svg">
<g clip-path="url(#clip0_535_64115)">
<path d="M0.00012207 5.23436C0.00012207 8.12014 2.35669 10.4688 5.25493 10.4688C6.54885 10.4688 7.73444 9.99954 8.65102 9.22474L8.91394 9.48664C8.8263 9.76795 8.89447 10.0868 9.11722 10.3099L13.7135 14.8884C13.8644 15.0387 14.1091 15.0387 14.2613 14.8884L14.8881 14.2639C15.0403 14.1124 15.0403 13.8675 14.8881 13.7159L10.2943 9.13986C10.0703 8.91676 9.75018 8.85007 9.46778 8.93738L9.20851 8.67911C10.018 7.7576 10.511 6.55357 10.511 5.23557C10.5097 2.34858 8.15195 -6.10352e-05 5.25493 -6.10352e-05C2.35669 -6.10352e-05 0.00012207 2.34858 0.00012207 5.23436ZM1.60687 5.23436C1.60687 3.23007 3.24406 1.60046 5.25493 1.60046C7.2658 1.60046 8.90299 3.23129 8.90299 5.23436C8.90299 7.23743 7.2658 8.86826 5.25493 8.86826C3.24406 8.86826 1.60687 7.23743 1.60687 5.23436Z" fill="#ACACAC"/>
</g>
<defs>
<clipPath id="clip0_535_64115">
<rect width="15" height="15" fill="white"/>
</clipPath>
</defs>
</svg>
